# xmcd
#
# Track frame offsets: 
#        150
#        15933
#        29554
#        44581
#        58860
#        70484
#        87246
#        103473
#        118911
#        132647
#        146577
#        160126
#        178453
#
# Disc length: 2591 seconds
#
# Revision: 0
# Processed by: cddbd v1.5.2PL0 Copyright (c) Steve Scherf et al.
# Submitted via: ExactAudioCopy v1.0b3
#
DISCID=cc0a1d0d
DTITLE=Kiddy Contest - Kiddy Contest Vol.21
DYEAR=2015
DGENRE=Pop
TTITLE0=Kiddy Contest Kids 2015 - We Are The Kids
TTITLE1=Sophia Joham - Make Up
TTITLE2=Selina Gerstmayer - Ein Kleines Geheimnis
TTITLE3=Paul Aschenwald - Gespenster Gibt Es Sicher Nicht
TTITLE4=Emelie Missiuk - Weil Ich Klein Bin
TTITLE5=Markus Manzl - Blinder Passagier
TTITLE6=Uljana Schmal - Ein Dino In Der Stadt
TTITLE7=Laura Eder - Fensterglas
TTITLE8=Anna Hölzl - Wo Geht's Hier Nach Afrika
TTITLE9=Alinah Hofstätter - Tausend Selfies
TTITLE10=Simon Stabauer - Märchenhelden
TTITLE11=Kiddy Contest Kids 2015 - Unsichtbare Lichter
TTITLE12=Lena Tirler - Weekend
EXTD=
EXTT0=
EXTT1=
EXTT2=
EXTT3=
EXTT4=
EXTT5=
EXTT6=
EXTT7=
EXTT8=
EXTT9=
EXTT10=
EXTT11=
EXTT12=
PLAYORDER=
